<svg xmlns="http://www.w3.org/2000/svg" xmlns:v="https://svgstorm.com"
viewBox = "0 0 549 455"
width="549"
height="455">
<g fill="None" fill-opacity="0.0" stroke="#d5371e" stroke-opacity="0.00" stroke-width="0.3"><path d="
M 0.00 455.00 
L 549.00 455.00
L 549.00 0.00
L 0.00 0.00
L 0.00 455.00
M 284.00 62.00 
C 261.06 73.58 238.23 85.45 215.00 96.00
C 206.07 101.91 195.81 88.95 186.31 86.69 C 166.39 76.94 146.90 67.05 127.00 57.00
C 144.07 43.68 167.61 36.26 186.70 24.70 C 193.85 22.95 200.29 14.04 207.69 19.31 C 228.03 30.07 248.27 39.60 268.70 50.31 C 272.87 54.02 288.67 56.60 284.00 62.00
M 252.00 329.00 
C 252.44 329.16 253.00 329.00 253.00 329.00
C 259.61 331.17 265.61 335.12 272.00 338.00
C 271.88 277.28 271.85 216.19 272.00 155.00
C 292.04 163.65 311.18 174.63 331.08 183.92 C 338.93 190.58 355.59 190.77 357.00 202.00 C 357.00 260.67 357.00 319.33 357.00 378.00 C 361.90 393.32 347.51 397.11 336.92 401.92 C 317.50 411.79 297.90 421.76 278.31 431.31 C 268.54 437.02 258.58 424.59 248.92 422.08 C 209.54 402.40 170.39 382.74 131.00 363.00
C 120.61 357.78 128.43 340.26 126.00 330.00 C 126.67 317.50 124.67 303.68 127.00 292.00
C 127.00 291.50 127.00 291.00 127.00 291.00
C 124.67 256.24 126.67 219.52 126.00 184.00
C 125.47 182.72 126.97 182.14 127.00 181.00
C 124.67 149.24 126.67 115.52 126.00 83.00
C 147.84 90.33 167.91 103.53 189.08 112.92 C 198.13 119.38 216.40 120.40 212.00 136.00 C 212.00 182.67 212.00 229.33 212.00 276.00 C 214.48 288.45 205.05 308.68 221.23 312.77 C 231.41 318.15 242.90 322.24 252.00 329.00
M 357.00 171.00 
C 356.00 171.00 355.00 171.00 354.00 171.00
C 332.13 159.33 308.62 149.91 288.00 137.00
C 287.65 136.77 287.00 137.00 287.00 137.00
C 283.66 136.36 280.36 134.23 278.00 132.00
C 277.50 132.00 277.00 132.00 277.00 132.00
C 274.49 131.78 271.20 130.17 272.00 127.00
C 294.13 118.28 314.63 105.56 336.23 95.23 C 347.39 85.05 358.05 95.98 369.03 99.97 C 379.37 105.81 390.18 111.15 401.03 115.98 C 410.61 122.90 424.72 125.24 432.00 134.00
C 406.79 145.65 381.96 159.05 357.00 171.00 Z"/>
</g>
<g fill="None" fill-opacity="0.0" stroke="#d5371e" stroke-opacity="0.19" stroke-width="0.3"><path d="
M 215.00 96.00 
C 214.50 96.04 214.00 96.00 214.00 96.00
C 199.07 95.49 185.62 82.17 171.00 78.00
C 168.77 76.49 165.66 76.05 164.00 74.00
C 162.32 73.29 160.92 71.99 159.00 72.00
C 156.77 70.49 153.66 70.05 152.00 68.00
C 148.74 67.08 146.54 63.81 143.00 64.00
C 138.31 61.64 133.69 59.35 129.00 57.00
C 138.80 47.50 154.77 43.40 167.00 36.00
C 168.28 36.53 168.86 35.03 170.00 35.00
C 171.79 33.10 174.70 32.36 177.00 31.00
C 187.37 28.55 197.30 16.09 207.69 21.31 C 217.75 26.34 227.86 31.38 238.00 36.00
C 242.91 38.81 248.66 40.65 253.00 44.00
C 253.47 44.11 254.00 44.00 254.00 44.00
C 263.58 49.13 274.00 53.33 283.00 59.00
C 283.47 59.11 284.00 59.00 284.00 59.00
C 285.86 59.46 284.16 61.04 284.00 62.00
C 288.67 56.60 272.87 54.02 268.70 50.31 C 248.27 39.60 228.03 30.07 207.69 19.31 C 200.29 14.04 193.85 22.95 186.70 24.70 C 167.61 36.26 144.07 43.68 127.00 57.00
C 146.90 67.05 166.39 76.94 186.31 86.69 C 195.81 88.95 206.07 101.91 215.00 96.00 Z"/>
</g>
<g fill="None" fill-opacity="0.0" stroke="#d5371e" stroke-opacity="1.00" stroke-width="0.3"><path d="
M 177.00 31.00 
C 175.60 33.39 172.56 34.40 170.00 35.00
C 168.86 35.03 168.28 36.53 167.00 36.00
C 155.77 43.60 142.45 49.28 130.00 55.00
C 131.92 59.87 140.13 59.44 143.00 64.00
C 146.54 63.81 148.74 67.08 152.00 68.00
C 154.46 68.66 157.72 69.55 159.00 72.00
C 160.92 71.99 162.32 73.29 164.00 74.00
C 166.46 74.66 169.72 75.55 171.00 78.00
C 185.62 82.17 199.07 95.49 214.00 96.00
C 236.40 82.64 263.09 73.35 284.00 59.00
C 284.00 59.00 283.47 59.11 283.00 59.00
C 273.24 54.62 262.53 50.26 254.00 44.00
C 254.00 44.00 253.47 44.11 253.00 44.00
C 247.91 41.96 241.88 39.91 238.00 36.00
C 227.86 31.38 217.75 26.34 207.69 21.31 C 197.30 16.09 187.37 28.55 177.00 31.00 Z"/>
</g>
<g fill="None" fill-opacity="0.0" stroke="#d5371e" stroke-opacity="0.61" stroke-width="0.3"><path d="
M 170.00 35.00 
C 172.56 34.40 175.60 33.39 177.00 31.00
C 174.70 32.36 171.79 33.10 170.00 35.00 Z"/>
</g>
<g fill="None" fill-opacity="0.0" stroke="#d5371e" stroke-opacity="0.61" stroke-width="0.3"><path d="
M 143.00 64.00 
C 140.13 59.44 131.92 59.87 130.00 55.00
C 142.45 49.28 155.77 43.60 167.00 36.00
C 154.77 43.40 138.80 47.50 129.00 57.00
C 133.69 59.35 138.31 61.64 143.00 64.00 Z"/>
</g>
<g fill="None" fill-opacity="0.0" stroke="#d5371e" stroke-opacity="0.62" stroke-width="0.3"><path d="
M 253.00 44.00 
C 248.66 40.65 242.91 38.81 238.00 36.00
C 241.88 39.91 247.91 41.96 253.00 44.00 Z"/>
</g>
<g fill="None" fill-opacity="0.0" stroke="#d5371e" stroke-opacity="0.58" stroke-width="0.3"><path d="
M 283.00 59.00 
C 274.00 53.33 263.58 49.13 254.00 44.00
C 262.53 50.26 273.24 54.62 283.00 59.00 Z"/>
</g>
<g fill="None" fill-opacity="0.0" stroke="#d5371e" stroke-opacity="0.32" stroke-width="0.3"><path d="
M 214.00 96.00 
C 214.00 96.00 214.50 96.04 215.00 96.00
C 238.23 85.45 261.06 73.58 284.00 62.00
C 284.16 61.04 285.86 59.46 284.00 59.00
C 263.09 73.35 236.40 82.64 214.00 96.00 Z"/>
</g>
<g fill="None" fill-opacity="0.0" stroke="#d5371e" stroke-opacity="0.63" stroke-width="0.3"><path d="
M 159.00 72.00 
C 157.72 69.55 154.46 68.66 152.00 68.00
C 153.66 70.05 156.77 70.49 159.00 72.00 Z"/>
</g>
<g fill="None" fill-opacity="0.0" stroke="#d5371e" stroke-opacity="0.63" stroke-width="0.3"><path d="
M 171.00 78.00 
C 169.72 75.55 166.46 74.66 164.00 74.00
C 165.66 76.05 168.77 76.49 171.00 78.00 Z"/>
</g>
<g fill="None" fill-opacity="0.0" stroke="#d5371e" stroke-opacity="0.08" stroke-width="0.3"><path d="
M 127.00 181.00 
C 127.67 148.83 125.67 115.35 128.00 84.00
C 155.68 96.78 182.89 111.07 210.23 124.77 C 212.03 185.69 210.49 247.67 211.00 309.00
C 223.42 314.71 236.80 320.40 248.00 328.00
C 248.43 328.17 249.00 328.00 249.00 328.00
C 250.28 327.47 250.86 328.97 252.00 329.00
C 242.90 322.24 231.41 318.15 221.23 312.77 C 205.05 308.68 214.48 288.45 212.00 276.00 C 212.00 229.33 212.00 182.67 212.00 136.00 C 216.40 120.40 198.13 119.38 189.08 112.92 C 167.91 103.53 147.84 90.33 126.00 83.00
C 126.67 115.52 124.67 149.24 127.00 181.00 Z"/>
</g>
<g fill="None" fill-opacity="0.0" stroke="#d5371e" stroke-opacity="0.43" stroke-width="0.3"><path d="
M 127.00 181.00 
C 126.97 182.14 125.47 182.72 126.00 184.00
C 128.33 218.76 126.33 255.48 127.00 291.00
C 127.00 291.00 127.00 291.50 127.00 292.00
C 127.00 304.33 127.00 316.67 127.00 329.00 C 129.25 339.31 122.25 355.58 131.00 362.00
C 132.34 362.73 133.64 363.34 135.00 364.00
C 122.46 359.14 130.04 342.15 128.00 331.00 C 128.00 249.00 128.00 167.00 128.00 85.00
C 128.00 84.50 128.00 84.00 128.00 84.00
C 125.67 115.35 127.67 148.83 127.00 181.00 Z"/>
</g>
<g fill="None" fill-opacity="0.0" stroke="#d5371e" stroke-opacity="0.58" stroke-width="0.3"><path d="
M 128.00 85.00 
C 155.67 97.34 182.31 112.65 210.00 125.00
C 210.00 178.33 210.00 231.67 210.00 285.00 C 210.64 296.32 205.68 312.08 220.69 314.31 C 229.75 318.93 238.89 323.42 248.00 328.00
C 236.80 320.40 223.42 314.71 211.00 309.00
C 210.49 247.67 212.03 185.69 210.23 124.77 C 182.89 111.07 155.68 96.78 128.00 84.00
C 128.00 84.00 128.00 84.50 128.00 85.00 Z"/>
</g>
<g fill="None" fill-opacity="0.0" stroke="#d5371e" stroke-opacity="1.00" stroke-width="0.3"><path d="
M 135.00 364.00 
C 178.48 384.60 222.13 407.41 265.23 428.77 C 280.15 436.37 294.80 418.55 309.23 414.23 C 324.07 407.55 338.04 399.27 353.00 393.00
C 357.64 368.29 353.69 340.79 355.00 315.00 C 355.00 288.00 355.00 261.00 355.00 234.00 C 353.27 221.68 358.63 205.91 352.00 196.00
C 342.10 191.74 332.96 186.34 323.00 182.00
C 316.75 178.53 309.67 176.01 304.00 172.00
C 303.53 171.89 303.00 172.00 303.00 172.00
C 295.42 167.87 287.00 164.67 280.00 160.00
C 278.72 160.53 278.14 159.03 277.00 159.00
C 275.72 159.53 275.14 158.03 274.00 158.00
C 274.00 212.67 274.00 267.33 274.00 322.00 C 272.91 326.39 276.71 342.46 271.00 339.00
C 263.50 336.06 255.71 332.20 249.00 328.00
C 249.00 328.00 248.43 328.17 248.00 328.00
C 238.89 323.42 229.75 318.93 220.69 314.31 C 205.68 312.08 210.64 296.32 210.00 285.00 C 210.00 231.67 210.00 178.33 210.00 125.00
C 182.31 112.65 155.67 97.34 128.00 85.00
C 128.00 167.00 128.00 249.00 128.00 331.00 C 130.04 342.15 122.46 359.14 135.00 364.00 Z"/>
</g>
<g fill="None" fill-opacity="0.0" stroke="#d5371e" stroke-opacity="0.15" stroke-width="0.3"><path d="
M 277.00 132.00 
C 276.12 130.71 273.46 130.30 274.00 128.00
C 279.74 125.44 285.03 121.84 291.00 120.00
C 291.47 119.89 292.00 120.00 292.00 120.00
C 294.92 116.36 300.11 115.49 304.00 113.00
C 317.77 106.09 331.41 99.52 345.00 93.00
C 353.54 89.70 364.11 100.83 373.23 103.77 C 391.80 114.01 413.93 121.43 430.00 134.00
C 421.38 137.16 413.40 142.12 405.00 146.00
C 403.47 147.13 401.55 146.91 400.00 148.00
C 398.21 149.90 395.30 150.64 393.00 152.00
C 381.14 157.23 369.64 163.19 358.00 169.00
C 357.87 169.80 356.91 170.11 357.00 171.00
C 381.96 159.05 406.79 145.65 432.00 134.00
C 424.72 125.24 410.61 122.90 401.03 115.98 C 390.18 111.15 379.37 105.81 369.03 99.97 C 358.05 95.98 347.39 85.05 336.23 95.23 C 314.63 105.56 294.13 118.28 272.00 127.00
C 271.20 130.17 274.49 131.78 277.00 132.00 Z"/>
</g>
<g fill="None" fill-opacity="0.0" stroke="#d5371e" stroke-opacity="0.56" stroke-width="0.3"><path d="
M 345.00 93.00 
C 359.26 94.41 372.71 105.97 386.70 111.31 C 400.80 118.13 414.60 125.94 429.00 132.00
C 422.33 138.27 411.65 139.73 405.00 146.00
C 413.40 142.12 421.38 137.16 430.00 134.00
C 413.93 121.43 391.80 114.01 373.23 103.77 C 364.11 100.83 353.54 89.70 345.00 93.00 Z"/>
</g>
<g fill="None" fill-opacity="0.0" stroke="#d5371e" stroke-opacity="1.00" stroke-width="0.3"><path d="
M 345.00 93.00 
C 331.41 99.52 317.77 106.09 304.00 113.00
C 301.08 116.64 295.89 117.51 292.00 120.00
C 292.00 120.00 291.47 119.89 291.00 120.00
C 286.22 123.20 280.54 126.07 275.00 128.00
C 274.43 130.68 278.36 130.04 279.00 132.00
C 279.50 132.00 280.00 132.00 280.00 132.00
C 292.94 138.44 305.75 144.93 318.70 151.31 C 331.77 156.65 344.76 166.96 358.00 169.00
C 369.64 163.19 381.14 157.23 393.00 152.00
C 394.40 149.61 397.44 148.60 400.00 148.00
C 401.55 146.91 403.47 147.13 405.00 146.00
C 411.65 139.73 422.33 138.27 429.00 132.00
C 414.60 125.94 400.80 118.13 386.70 111.31 C 372.71 105.97 359.26 94.41 345.00 93.00 Z"/>
</g>
<g fill="None" fill-opacity="0.0" stroke="#d5371e" stroke-opacity="0.63" stroke-width="0.3"><path d="
M 292.00 120.00 
C 295.89 117.51 301.08 116.64 304.00 113.00
C 300.11 115.49 294.92 116.36 292.00 120.00 Z"/>
</g>
<g fill="None" fill-opacity="0.0" stroke="#d5371e" stroke-opacity="0.60" stroke-width="0.3"><path d="
M 277.00 132.00 
C 277.00 132.00 277.50 132.00 278.00 132.00
C 278.50 132.00 279.00 132.00 279.00 132.00
C 278.36 130.04 274.43 130.68 275.00 128.00
C 280.54 126.07 286.22 123.20 291.00 120.00
C 285.03 121.84 279.74 125.44 274.00 128.00
C 273.46 130.30 276.12 130.71 277.00 132.00 Z"/>
</g>
<g fill="None" fill-opacity="0.0" stroke="#d5371e" stroke-opacity="0.09" stroke-width="0.3"><path d="
M 287.00 137.00 
C 285.35 134.65 281.19 134.93 280.00 132.00
C 280.00 132.00 279.50 132.00 279.00 132.00
C 279.00 132.00 278.50 132.00 278.00 132.00
C 280.36 134.23 283.66 136.36 287.00 137.00 Z"/>
</g>
<g fill="None" fill-opacity="0.0" stroke="#d5371e" stroke-opacity="0.49" stroke-width="0.3"><path d="
M 287.00 137.00 
C 287.00 137.00 287.65 136.77 288.00 137.00
C 309.70 148.56 333.21 158.24 354.00 171.00
C 355.00 171.00 356.00 171.00 357.00 171.00
C 356.91 170.11 357.87 169.80 358.00 169.00
C 344.76 166.96 331.77 156.65 318.70 151.31 C 305.75 144.93 292.94 138.44 280.00 132.00
C 281.19 134.93 285.35 134.65 287.00 137.00 Z"/>
</g>
<g fill="None" fill-opacity="0.0" stroke="#d5371e" stroke-opacity="0.07" stroke-width="0.3"><path d="
M 354.00 171.00 
C 333.21 158.24 309.70 148.56 288.00 137.00
C 308.62 149.91 332.13 159.33 354.00 171.00 Z"/>
</g>
<g fill="None" fill-opacity="0.0" stroke="#d5371e" stroke-opacity="0.63" stroke-width="0.3"><path d="
M 393.00 152.00 
C 395.30 150.64 398.21 149.90 400.00 148.00
C 397.44 148.60 394.40 149.61 393.00 152.00 Z"/>
</g>
<g fill="None" fill-opacity="0.0" stroke="#d5371e" stroke-opacity="0.24" stroke-width="0.3"><path d="
M 272.00 338.00 
C 271.95 338.49 272.00 339.00 272.00 339.00
C 274.33 279.24 272.33 217.52 273.00 157.00
C 274.41 157.15 276.34 157.65 277.00 159.00
C 278.14 159.03 278.72 160.53 280.00 160.00
C 287.76 163.38 296.47 166.74 303.00 172.00
C 303.00 172.00 303.53 171.89 304.00 172.00
C 310.42 174.71 317.80 177.42 323.00 182.00
C 332.96 186.34 342.10 191.74 352.00 196.00
C 360.58 201.81 353.88 216.55 356.00 226.00 C 356.00 271.33 356.00 316.67 356.00 362.00 C 354.20 371.84 359.73 386.11 353.00 393.00
C 338.04 399.27 324.07 407.55 309.23 414.23 C 294.80 418.55 280.15 436.37 265.23 428.77 C 222.13 407.41 178.48 384.60 135.00 364.00
C 133.64 363.34 132.34 362.73 131.00 362.00
C 131.08 362.01 131.00 363.00 131.00 363.00
C 170.39 382.74 209.54 402.40 248.92 422.08 C 258.58 424.59 268.54 437.02 278.31 431.31 C 297.90 421.76 317.50 411.79 336.92 401.92 C 347.51 397.11 361.90 393.32 357.00 378.00 C 357.00 319.33 357.00 260.67 357.00 202.00 C 355.59 190.77 338.93 190.58 331.08 183.92 C 311.18 174.63 292.04 163.65 272.00 155.00
C 271.85 216.19 271.88 277.28 272.00 338.00 Z"/>
</g>
<g fill="None" fill-opacity="0.0" stroke="#d5371e" stroke-opacity="0.88" stroke-width="0.3"><path d="
M 272.00 339.00 
C 271.75 339.25 271.00 339.00 271.00 339.00
C 276.71 342.46 272.91 326.39 274.00 322.00 C 274.00 267.33 274.00 212.67 274.00 158.00
C 275.14 158.03 275.72 159.53 277.00 159.00
C 276.34 157.65 274.41 157.15 273.00 157.00
C 272.33 217.52 274.33 279.24 272.00 339.00 Z"/>
</g>
<g fill="None" fill-opacity="0.0" stroke="#d5371e" stroke-opacity="0.55" stroke-width="0.3"><path d="
M 303.00 172.00 
C 296.47 166.74 287.76 163.38 280.00 160.00
C 287.00 164.67 295.42 167.87 303.00 172.00 Z"/>
</g>
<g fill="None" fill-opacity="0.0" stroke="#d5371e" stroke-opacity="0.52" stroke-width="0.3"><path d="
M 323.00 182.00 
C 317.80 177.42 310.42 174.71 304.00 172.00
C 309.67 176.01 316.75 178.53 323.00 182.00 Z"/>
</g>
<g fill="None" fill-opacity="0.0" stroke="#d5371e" stroke-opacity="0.02" stroke-width="0.3"><path d="
M 127.00 291.00 
C 126.33 255.48 128.33 218.76 126.00 184.00
C 126.67 219.52 124.67 256.24 127.00 291.00 Z"/>
</g>
<g fill="None" fill-opacity="0.0" stroke="#d5371e" stroke-opacity="0.75" stroke-width="0.3"><path d="
M 353.00 393.00 
C 359.73 386.11 354.20 371.84 356.00 362.00 C 356.00 316.67 356.00 271.33 356.00 226.00 C 353.88 216.55 360.58 201.81 352.00 196.00
C 358.63 205.91 353.27 221.68 355.00 234.00 C 355.00 261.00 355.00 288.00 355.00 315.00 C 353.69 340.79 357.64 368.29 353.00 393.00 Z"/>
</g>
<g fill="None" fill-opacity="0.0" stroke="#d5371e" stroke-opacity="0.02" stroke-width="0.3"><path d="
M 131.00 363.00 
C 131.00 363.00 131.08 362.01 131.00 362.00
C 122.25 355.58 129.25 339.31 127.00 329.00 C 127.00 316.67 127.00 304.33 127.00 292.00
C 124.67 303.68 126.67 317.50 126.00 330.00 C 128.43 340.26 120.61 357.78 131.00 363.00 Z"/>
</g>
<g fill="None" fill-opacity="0.0" stroke="#d5371e" stroke-opacity="0.46" stroke-width="0.3"><path d="
M 271.00 339.00 
C 265.72 334.89 258.24 333.10 253.00 329.00
C 253.00 329.00 252.44 329.16 252.00 329.00
C 250.86 328.97 250.28 327.47 249.00 328.00
C 255.71 332.20 263.50 336.06 271.00 339.00 Z"/>
</g>
<g fill="None" fill-opacity="0.0" stroke="#d5371e" stroke-opacity="0.06" stroke-width="0.3"><path d="
M 271.00 339.00 
C 271.00 339.00 271.75 339.25 272.00 339.00
C 272.00 339.00 271.95 338.49 272.00 338.00
C 265.61 335.12 259.61 331.17 253.00 329.00
C 258.24 333.10 265.72 334.89 271.00 339.00 Z"/>
</g>
<g fill="#d5371e" fill-opacity="0.00" stroke="None"><path d="
M 0.00 455.00 
L 549.00 455.00
L 549.00 0.00
L 0.00 0.00
L 0.00 455.00
M 284.00 62.00 
C 261.06 73.58 238.23 85.45 215.00 96.00
C 206.07 101.91 195.81 88.95 186.31 86.69 C 166.39 76.94 146.90 67.05 127.00 57.00
C 144.07 43.68 167.61 36.26 186.70 24.70 C 193.85 22.95 200.29 14.04 207.69 19.31 C 228.03 30.07 248.27 39.60 268.70 50.31 C 272.87 54.02 288.67 56.60 284.00 62.00
M 252.00 329.00 
C 252.44 329.16 253.00 329.00 253.00 329.00
C 259.61 331.17 265.61 335.12 272.00 338.00
C 271.88 277.28 271.85 216.19 272.00 155.00
C 292.04 163.65 311.18 174.63 331.08 183.92 C 338.93 190.58 355.59 190.77 357.00 202.00 C 357.00 260.67 357.00 319.33 357.00 378.00 C 361.90 393.32 347.51 397.11 336.92 401.92 C 317.50 411.79 297.90 421.76 278.31 431.31 C 268.54 437.02 258.58 424.59 248.92 422.08 C 209.54 402.40 170.39 382.74 131.00 363.00
C 120.61 357.78 128.43 340.26 126.00 330.00 C 126.67 317.50 124.67 303.68 127.00 292.00
C 127.00 291.50 127.00 291.00 127.00 291.00
C 124.67 256.24 126.67 219.52 126.00 184.00
C 125.47 182.72 126.97 182.14 127.00 181.00
C 124.67 149.24 126.67 115.52 126.00 83.00
C 147.84 90.33 167.91 103.53 189.08 112.92 C 198.13 119.38 216.40 120.40 212.00 136.00 C 212.00 182.67 212.00 229.33 212.00 276.00 C 214.48 288.45 205.05 308.68 221.23 312.77 C 231.41 318.15 242.90 322.24 252.00 329.00
M 357.00 171.00 
C 356.00 171.00 355.00 171.00 354.00 171.00
C 332.13 159.33 308.62 149.91 288.00 137.00
C 287.65 136.77 287.00 137.00 287.00 137.00
C 283.66 136.36 280.36 134.23 278.00 132.00
C 277.50 132.00 277.00 132.00 277.00 132.00
C 274.49 131.78 271.20 130.17 272.00 127.00
C 294.13 118.28 314.63 105.56 336.23 95.23 C 347.39 85.05 358.05 95.98 369.03 99.97 C 379.37 105.81 390.18 111.15 401.03 115.98 C 410.61 122.90 424.72 125.24 432.00 134.00
C 406.79 145.65 381.96 159.05 357.00 171.00 Z"/>
</g>
<g fill="#d5371e" fill-opacity="0.19" stroke="None"><path d="
M 215.00 96.00 
C 214.50 96.04 214.00 96.00 214.00 96.00
C 199.07 95.49 185.62 82.17 171.00 78.00
C 168.77 76.49 165.66 76.05 164.00 74.00
C 162.32 73.29 160.92 71.99 159.00 72.00
C 156.77 70.49 153.66 70.05 152.00 68.00
C 148.74 67.08 146.54 63.81 143.00 64.00
C 138.31 61.64 133.69 59.35 129.00 57.00
C 138.80 47.50 154.77 43.40 167.00 36.00
C 168.28 36.53 168.86 35.03 170.00 35.00
C 171.79 33.10 174.70 32.36 177.00 31.00
C 187.37 28.55 197.30 16.09 207.69 21.31 C 217.75 26.34 227.86 31.38 238.00 36.00
C 242.91 38.81 248.66 40.65 253.00 44.00
C 253.47 44.11 254.00 44.00 254.00 44.00
C 263.58 49.13 274.00 53.33 283.00 59.00
C 283.47 59.11 284.00 59.00 284.00 59.00
C 285.86 59.46 284.16 61.04 284.00 62.00
C 288.67 56.60 272.87 54.02 268.70 50.31 C 248.27 39.60 228.03 30.07 207.69 19.31 C 200.29 14.04 193.85 22.95 186.70 24.70 C 167.61 36.26 144.07 43.68 127.00 57.00
C 146.90 67.05 166.39 76.94 186.31 86.69 C 195.81 88.95 206.07 101.91 215.00 96.00 Z"/>
</g>
<g fill="#d5371e" fill-opacity="1.00" stroke="None"><path d="
M 177.00 31.00 
C 175.60 33.39 172.56 34.40 170.00 35.00
C 168.86 35.03 168.28 36.53 167.00 36.00
C 155.77 43.60 142.45 49.28 130.00 55.00
C 131.92 59.87 140.13 59.44 143.00 64.00
C 146.54 63.81 148.74 67.08 152.00 68.00
C 154.46 68.66 157.72 69.55 159.00 72.00
C 160.92 71.99 162.32 73.29 164.00 74.00
C 166.46 74.66 169.72 75.55 171.00 78.00
C 185.62 82.17 199.07 95.49 214.00 96.00
C 236.40 82.64 263.09 73.35 284.00 59.00
C 284.00 59.00 283.47 59.11 283.00 59.00
C 273.24 54.62 262.53 50.26 254.00 44.00
C 254.00 44.00 253.47 44.11 253.00 44.00
C 247.91 41.96 241.88 39.91 238.00 36.00
C 227.86 31.38 217.75 26.34 207.69 21.31 C 197.30 16.09 187.37 28.55 177.00 31.00 Z"/>
</g>
<g fill="#d5371e" fill-opacity="0.61" stroke="None"><path d="
M 170.00 35.00 
C 172.56 34.40 175.60 33.39 177.00 31.00
C 174.70 32.36 171.79 33.10 170.00 35.00 Z"/>
</g>
<g fill="#d5371e" fill-opacity="0.61" stroke="None"><path d="
M 143.00 64.00 
C 140.13 59.44 131.92 59.87 130.00 55.00
C 142.45 49.28 155.77 43.60 167.00 36.00
C 154.77 43.40 138.80 47.50 129.00 57.00
C 133.69 59.35 138.31 61.64 143.00 64.00 Z"/>
</g>
<g fill="#d5371e" fill-opacity="0.62" stroke="None"><path d="
M 253.00 44.00 
C 248.66 40.65 242.91 38.81 238.00 36.00
C 241.88 39.91 247.91 41.96 253.00 44.00 Z"/>
</g>
<g fill="#d5371e" fill-opacity="0.58" stroke="None"><path d="
M 283.00 59.00 
C 274.00 53.33 263.58 49.13 254.00 44.00
C 262.53 50.26 273.24 54.62 283.00 59.00 Z"/>
</g>
<g fill="#d5371e" fill-opacity="0.32" stroke="None"><path d="
M 214.00 96.00 
C 214.00 96.00 214.50 96.04 215.00 96.00
C 238.23 85.45 261.06 73.58 284.00 62.00
C 284.16 61.04 285.86 59.46 284.00 59.00
C 263.09 73.35 236.40 82.64 214.00 96.00 Z"/>
</g>
<g fill="#d5371e" fill-opacity="0.63" stroke="None"><path d="
M 159.00 72.00 
C 157.72 69.55 154.46 68.66 152.00 68.00
C 153.66 70.05 156.77 70.49 159.00 72.00 Z"/>
</g>
<g fill="#d5371e" fill-opacity="0.63" stroke="None"><path d="
M 171.00 78.00 
C 169.72 75.55 166.46 74.66 164.00 74.00
C 165.66 76.05 168.77 76.49 171.00 78.00 Z"/>
</g>
<g fill="#d5371e" fill-opacity="0.08" stroke="None"><path d="
M 127.00 181.00 
C 127.67 148.83 125.67 115.35 128.00 84.00
C 155.68 96.78 182.89 111.07 210.23 124.77 C 212.03 185.69 210.49 247.67 211.00 309.00
C 223.42 314.71 236.80 320.40 248.00 328.00
C 248.43 328.17 249.00 328.00 249.00 328.00
C 250.28 327.47 250.86 328.97 252.00 329.00
C 242.90 322.24 231.41 318.15 221.23 312.77 C 205.05 308.68 214.48 288.45 212.00 276.00 C 212.00 229.33 212.00 182.67 212.00 136.00 C 216.40 120.40 198.13 119.38 189.08 112.92 C 167.91 103.53 147.84 90.33 126.00 83.00
C 126.67 115.52 124.67 149.24 127.00 181.00 Z"/>
</g>
<g fill="#d5371e" fill-opacity="0.43" stroke="None"><path d="
M 127.00 181.00 
C 126.97 182.14 125.47 182.72 126.00 184.00
C 128.33 218.76 126.33 255.48 127.00 291.00
C 127.00 291.00 127.00 291.50 127.00 292.00
C 127.00 304.33 127.00 316.67 127.00 329.00 C 129.25 339.31 122.25 355.58 131.00 362.00
C 132.34 362.73 133.64 363.34 135.00 364.00
C 122.46 359.14 130.04 342.15 128.00 331.00 C 128.00 249.00 128.00 167.00 128.00 85.00
C 128.00 84.50 128.00 84.00 128.00 84.00
C 125.67 115.35 127.67 148.83 127.00 181.00 Z"/>
</g>
<g fill="#d5371e" fill-opacity="0.58" stroke="None"><path d="
M 128.00 85.00 
C 155.67 97.34 182.31 112.65 210.00 125.00
C 210.00 178.33 210.00 231.67 210.00 285.00 C 210.64 296.32 205.68 312.08 220.69 314.31 C 229.75 318.93 238.89 323.42 248.00 328.00
C 236.80 320.40 223.42 314.71 211.00 309.00
C 210.49 247.67 212.03 185.69 210.23 124.77 C 182.89 111.07 155.68 96.78 128.00 84.00
C 128.00 84.00 128.00 84.50 128.00 85.00 Z"/>
</g>
<g fill="#d5371e" fill-opacity="1.00" stroke="None"><path d="
M 135.00 364.00 
C 178.48 384.60 222.13 407.41 265.23 428.77 C 280.15 436.37 294.80 418.55 309.23 414.23 C 324.07 407.55 338.04 399.27 353.00 393.00
C 357.64 368.29 353.69 340.79 355.00 315.00 C 355.00 288.00 355.00 261.00 355.00 234.00 C 353.27 221.68 358.63 205.91 352.00 196.00
C 342.10 191.74 332.96 186.34 323.00 182.00
C 316.75 178.53 309.67 176.01 304.00 172.00
C 303.53 171.89 303.00 172.00 303.00 172.00
C 295.42 167.87 287.00 164.67 280.00 160.00
C 278.72 160.53 278.14 159.03 277.00 159.00
C 275.72 159.53 275.14 158.03 274.00 158.00
C 274.00 212.67 274.00 267.33 274.00 322.00 C 272.91 326.39 276.71 342.46 271.00 339.00
C 263.50 336.06 255.71 332.20 249.00 328.00
C 249.00 328.00 248.43 328.17 248.00 328.00
C 238.89 323.42 229.75 318.93 220.69 314.31 C 205.68 312.08 210.64 296.32 210.00 285.00 C 210.00 231.67 210.00 178.33 210.00 125.00
C 182.31 112.65 155.67 97.34 128.00 85.00
C 128.00 167.00 128.00 249.00 128.00 331.00 C 130.04 342.15 122.46 359.14 135.00 364.00 Z"/>
</g>
<g fill="#d5371e" fill-opacity="0.15" stroke="None"><path d="
M 277.00 132.00 
C 276.12 130.71 273.46 130.30 274.00 128.00
C 279.74 125.44 285.03 121.84 291.00 120.00
C 291.47 119.89 292.00 120.00 292.00 120.00
C 294.92 116.36 300.11 115.49 304.00 113.00
C 317.77 106.09 331.41 99.52 345.00 93.00
C 353.54 89.70 364.11 100.83 373.23 103.77 C 391.80 114.01 413.93 121.43 430.00 134.00
C 421.38 137.16 413.40 142.12 405.00 146.00
C 403.47 147.13 401.55 146.91 400.00 148.00
C 398.21 149.90 395.30 150.64 393.00 152.00
C 381.14 157.23 369.64 163.19 358.00 169.00
C 357.87 169.80 356.91 170.11 357.00 171.00
C 381.96 159.05 406.79 145.65 432.00 134.00
C 424.72 125.24 410.61 122.90 401.03 115.98 C 390.18 111.15 379.37 105.81 369.03 99.97 C 358.05 95.98 347.39 85.05 336.23 95.23 C 314.63 105.56 294.13 118.28 272.00 127.00
C 271.20 130.17 274.49 131.78 277.00 132.00 Z"/>
</g>
<g fill="#d5371e" fill-opacity="0.56" stroke="None"><path d="
M 345.00 93.00 
C 359.26 94.41 372.71 105.97 386.70 111.31 C 400.80 118.13 414.60 125.94 429.00 132.00
C 422.33 138.27 411.65 139.73 405.00 146.00
C 413.40 142.12 421.38 137.16 430.00 134.00
C 413.93 121.43 391.80 114.01 373.23 103.77 C 364.11 100.83 353.54 89.70 345.00 93.00 Z"/>
</g>
<g fill="#d5371e" fill-opacity="1.00" stroke="None"><path d="
M 345.00 93.00 
C 331.41 99.52 317.77 106.09 304.00 113.00
C 301.08 116.64 295.89 117.51 292.00 120.00
C 292.00 120.00 291.47 119.89 291.00 120.00
C 286.22 123.20 280.54 126.07 275.00 128.00
C 274.43 130.68 278.36 130.04 279.00 132.00
C 279.50 132.00 280.00 132.00 280.00 132.00
C 292.94 138.44 305.75 144.93 318.70 151.31 C 331.77 156.65 344.76 166.96 358.00 169.00
C 369.64 163.19 381.14 157.23 393.00 152.00
C 394.40 149.61 397.44 148.60 400.00 148.00
C 401.55 146.91 403.47 147.13 405.00 146.00
C 411.65 139.73 422.33 138.27 429.00 132.00
C 414.60 125.94 400.80 118.13 386.70 111.31 C 372.71 105.97 359.26 94.41 345.00 93.00 Z"/>
</g>
<g fill="#d5371e" fill-opacity="0.63" stroke="None"><path d="
M 292.00 120.00 
C 295.89 117.51 301.08 116.64 304.00 113.00
C 300.11 115.49 294.92 116.36 292.00 120.00 Z"/>
</g>
<g fill="#d5371e" fill-opacity="0.60" stroke="None"><path d="
M 277.00 132.00 
C 277.00 132.00 277.50 132.00 278.00 132.00
C 278.50 132.00 279.00 132.00 279.00 132.00
C 278.36 130.04 274.43 130.68 275.00 128.00
C 280.54 126.07 286.22 123.20 291.00 120.00
C 285.03 121.84 279.74 125.44 274.00 128.00
C 273.46 130.30 276.12 130.71 277.00 132.00 Z"/>
</g>
<g fill="#d5371e" fill-opacity="0.09" stroke="None"><path d="
M 287.00 137.00 
C 285.35 134.65 281.19 134.93 280.00 132.00
C 280.00 132.00 279.50 132.00 279.00 132.00
C 279.00 132.00 278.50 132.00 278.00 132.00
C 280.36 134.23 283.66 136.36 287.00 137.00 Z"/>
</g>
<g fill="#d5371e" fill-opacity="0.49" stroke="None"><path d="
M 287.00 137.00 
C 287.00 137.00 287.65 136.77 288.00 137.00
C 309.70 148.56 333.21 158.24 354.00 171.00
C 355.00 171.00 356.00 171.00 357.00 171.00
C 356.91 170.11 357.87 169.80 358.00 169.00
C 344.76 166.96 331.77 156.65 318.70 151.31 C 305.75 144.93 292.94 138.44 280.00 132.00
C 281.19 134.93 285.35 134.65 287.00 137.00 Z"/>
</g>
<g fill="#d5371e" fill-opacity="0.07" stroke="None"><path d="
M 354.00 171.00 
C 333.21 158.24 309.70 148.56 288.00 137.00
C 308.62 149.91 332.13 159.33 354.00 171.00 Z"/>
</g>
<g fill="#d5371e" fill-opacity="0.63" stroke="None"><path d="
M 393.00 152.00 
C 395.30 150.64 398.21 149.90 400.00 148.00
C 397.44 148.60 394.40 149.61 393.00 152.00 Z"/>
</g>
<g fill="#d5371e" fill-opacity="0.24" stroke="None"><path d="
M 272.00 338.00 
C 271.95 338.49 272.00 339.00 272.00 339.00
C 274.33 279.24 272.33 217.52 273.00 157.00
C 274.41 157.15 276.34 157.65 277.00 159.00
C 278.14 159.03 278.72 160.53 280.00 160.00
C 287.76 163.38 296.47 166.74 303.00 172.00
C 303.00 172.00 303.53 171.89 304.00 172.00
C 310.42 174.71 317.80 177.42 323.00 182.00
C 332.96 186.34 342.10 191.74 352.00 196.00
C 360.58 201.81 353.88 216.55 356.00 226.00 C 356.00 271.33 356.00 316.67 356.00 362.00 C 354.20 371.84 359.73 386.11 353.00 393.00
C 338.04 399.27 324.07 407.55 309.23 414.23 C 294.80 418.55 280.15 436.37 265.23 428.77 C 222.13 407.41 178.48 384.60 135.00 364.00
C 133.64 363.34 132.34 362.73 131.00 362.00
C 131.08 362.01 131.00 363.00 131.00 363.00
C 170.39 382.74 209.54 402.40 248.92 422.08 C 258.58 424.59 268.54 437.02 278.31 431.31 C 297.90 421.76 317.50 411.79 336.92 401.92 C 347.51 397.11 361.90 393.32 357.00 378.00 C 357.00 319.33 357.00 260.67 357.00 202.00 C 355.59 190.77 338.93 190.58 331.08 183.92 C 311.18 174.63 292.04 163.65 272.00 155.00
C 271.85 216.19 271.88 277.28 272.00 338.00 Z"/>
</g>
<g fill="#d5371e" fill-opacity="0.88" stroke="None"><path d="
M 272.00 339.00 
C 271.75 339.25 271.00 339.00 271.00 339.00
C 276.71 342.46 272.91 326.39 274.00 322.00 C 274.00 267.33 274.00 212.67 274.00 158.00
C 275.14 158.03 275.72 159.53 277.00 159.00
C 276.34 157.65 274.41 157.15 273.00 157.00
C 272.33 217.52 274.33 279.24 272.00 339.00 Z"/>
</g>
<g fill="#d5371e" fill-opacity="0.55" stroke="None"><path d="
M 303.00 172.00 
C 296.47 166.74 287.76 163.38 280.00 160.00
C 287.00 164.67 295.42 167.87 303.00 172.00 Z"/>
</g>
<g fill="#d5371e" fill-opacity="0.52" stroke="None"><path d="
M 323.00 182.00 
C 317.80 177.42 310.42 174.71 304.00 172.00
C 309.67 176.01 316.75 178.53 323.00 182.00 Z"/>
</g>
<g fill="#d5371e" fill-opacity="0.02" stroke="None"><path d="
M 127.00 291.00 
C 126.33 255.48 128.33 218.76 126.00 184.00
C 126.67 219.52 124.67 256.24 127.00 291.00 Z"/>
</g>
<g fill="#d5371e" fill-opacity="0.75" stroke="None"><path d="
M 353.00 393.00 
C 359.73 386.11 354.20 371.84 356.00 362.00 C 356.00 316.67 356.00 271.33 356.00 226.00 C 353.88 216.55 360.58 201.81 352.00 196.00
C 358.63 205.91 353.27 221.68 355.00 234.00 C 355.00 261.00 355.00 288.00 355.00 315.00 C 353.69 340.79 357.64 368.29 353.00 393.00 Z"/>
</g>
<g fill="#d5371e" fill-opacity="0.02" stroke="None"><path d="
M 131.00 363.00 
C 131.00 363.00 131.08 362.01 131.00 362.00
C 122.25 355.58 129.25 339.31 127.00 329.00 C 127.00 316.67 127.00 304.33 127.00 292.00
C 124.67 303.68 126.67 317.50 126.00 330.00 C 128.43 340.26 120.61 357.78 131.00 363.00 Z"/>
</g>
<g fill="#d5371e" fill-opacity="0.46" stroke="None"><path d="
M 271.00 339.00 
C 265.72 334.89 258.24 333.10 253.00 329.00
C 253.00 329.00 252.44 329.16 252.00 329.00
C 250.86 328.97 250.28 327.47 249.00 328.00
C 255.71 332.20 263.50 336.06 271.00 339.00 Z"/>
</g>
<g fill="#d5371e" fill-opacity="0.06" stroke="None"><path d="
M 271.00 339.00 
C 271.00 339.00 271.75 339.25 272.00 339.00
C 272.00 339.00 271.95 338.49 272.00 338.00
C 265.61 335.12 259.61 331.17 253.00 329.00
C 258.24 333.10 265.72 334.89 271.00 339.00 Z"/>
</g>
</svg>